<svg id="Layer_1" data-name="Layer 1" xmlns="http://www.w3.org/2000/svg" viewBox="0 0 1814.87 375"><title>CUhackit Combined Logo RGB</title><path d="M653.7,290c-13.72,0-30.16-.91-42-7.62-21.93-12.17-29.24-45.07-29.24-102.64,0-56,6.7-90.16,29.24-102.65,11.88-6.7,28.32-7.61,42-7.61,44.76,0,61.82,13.1,68.53,57.87H692.38c-4-27.41-11-33.5-38.68-33.5-8.53,0-18.89,0-26.21,4.87-14.31,9.14-14.61,50-14.61,65.49v31.06c0,15.24.3,56.36,14.61,65.49,7.32,4.87,17.68,4.87,26.21,4.87,28,0,35-6.39,39-34.11h29.55C715.52,276.58,698.77,290,653.7,290Z"/><path d="M894.9,182.77c0,52.38-5.18,86.5-29.24,99.59-12.19,6.71-25.59,7.62-39.29,7.62s-26.81-.91-39-7.62c-20.71-11.26-29.24-38.07-29.24-99.59V73.12h28.94v110c0,44.77,4.56,70.35,16.14,78,7,4.87,14.91,5.17,23.15,5.17s16.44-.3,23.44-5.17c11.28-7.32,16.16-28.34,16.16-78v-110H894.9V182.77Z"/><path d="M1042.27,286.32V180.94c0-24.68-12.78-30.15-32-30.15-28.93,0-40.82,21.32-40.82,37.46v98.07H940.55V73.12h28.93v75.23c6.4-10.36,21.33-21,45.69-21,37.16,0,56,17.06,56,50v109Z"/><path d="M1213.73,216.57h-46.61c-21.62,0-30.15,6.1-30.15,25.9,0,18.27,9.75,24.36,32.28,24.36,10.66,0,19.19-.3,26.81-3.05,7.92-2.73,17.67-9.13,17.67-19.49V216.57Zm3,69.75V267.44c-2.74,5.78-13.09,16.14-21.32,18.88-9.14,3.36-18.28,3.66-38.08,3.66-31.06,0-51.47-14.32-51.47-49,0-22.24,12.19-45.7,48.74-45.7h59.09c0-18-.92-31.67-11.27-38.68-7.31-4.87-19.19-5.17-27.41-5.17s-17.68.3-24.68,5.17c-6.7,4.27-9.44,9.44-10.66,19.19h-29.85c2.74-20.11,9.74-32.59,24.67-40.81,12.19-6.71,26.81-7.62,40.52-7.62s31.36.91,43.85,7.62c21,11.57,23.76,39.28,23.76,72.18v79.19Z"/><path d="M1388.83,282.36c-12.18,6.71-25.28,7.62-39,7.62s-26.8-.91-39-7.62c-21.33-11.56-29.24-39.29-29.24-72.18,0-25.59,3.65-61.22,29.24-75.23,12.18-6.71,25.28-7.62,39-7.62s26.81.91,39,7.62c17.66,9.44,24.68,29.24,27.71,49H1386.1c-1.83-12.79-5.8-22.54-13.1-27.42-7-4.87-14.94-5.17-23.16-5.17s-16.14.3-23.14,5.17c-11.58,7.62-14.62,28-14.62,53.61,0,23.75,1.52,42,14.62,50.56,7,4.87,14.92,5.18,23.14,5.18s16.15-.31,23.16-5.18c8.52-5.48,12.18-15.54,13.71-28.32h29.83c-3,22.84-11.56,41.11-27.71,49.94Z"/><polygon points="1555.11 286.32 1480.18 209.57 1480.18 286.32 1451.25 286.32 1451.25 73.12 1480.18 73.12 1480.18 194.95 1544.76 130.99 1581.91 130.99 1507.9 200.13 1594.09 286.32 1555.11 286.32 1555.11 286.32"/><path d="M1638.84,105.1v-32h32v32Zm3.05,181.22V153.84h-38.68V131h67.62V286.32Z"/><path d="M1784.72,290c-29.55,0-50.88-14-50.88-45.08V154.14h-34.4V131h34.4V82.25l28.94-9.13V131h49v23.15h-49v85c0,18,13.72,26.19,26.81,26.19,7.92,0,21-2.14,25.28-4v24.37a108.34,108.34,0,0,1-30.15,4.26Z"/><polygon points="250 125 250 0 0 0 0 125 0 250 250 250 250 375 500 375 500 250 500 125 250 125"/></svg>