<svg enable-background="new 0 0 2142 625" viewBox="0 0 2142 625" xmlns="http://www.w3.org/2000/svg"><g fill="#010101"><path d="m822.352356 411.2515869v-98.4494629h-81.9908447v98.4494629h-28.9559326v-213.3585358h28.9559326v92.0482025h81.9908447v-92.0482025h28.9559326v213.3585358z"/><path d="m990.2896118 407.2902527c-12.1920776 6.7055664-26.8222046 7.6203003-40.5375977 7.6203003-13.7163086 0-28.3464355-.9147339-40.5385132-7.6203003-21.3356323-11.5835266-29.2611694-39.3204651-29.2611694-72.2377319 0-25.6031799 3.9622803-60.9604187 29.5654297-74.9800415 12.1920776-6.7055664 26.5179443-7.9245758 40.2342529-7.9245758 13.7153931 0 27.7359619 1.2190094 39.9281006 7.9245758 18.5933228 10.0583191 28.3464355 35.661499 28.3464355 67.664032v11.5835266h-107.5940551c0 22.8589478 2.4380493 37.4890747 15.239624 45.7198181 7.0108032 4.8760681 15.8500977 5.790802 24.079895 5.790802 8.2288818 0 17.6776733-.3042603 24.6884766-5.182251 7.9245605-5.1803284 12.4963379-11.581604 13.715332-22.2503967h29.8707275c-2.4380492 20.1166381-12.8016356 35.661499-27.7369384 43.8922424zm-15.8491211-125.8821106c-7.0108032-4.8779907-16.4595947-5.1822815-24.6884766-5.1822815-8.2297974 0-17.6785889.3042908-24.6893921 5.1822815-8.5340576 5.4865112-12.1920776 17.372406-13.715332 36.27005h76.1990356c-.3042602-18.5914611-5.7908324-31.3940124-13.1058349-36.27005z"/><path d="m1283.5480957 407.2902527c-12.4963379 7.0098267-28.0412598 7.6203003-42.0618896 7.6203003-14.0214844 0-29.5664062-.6104736-42.0627441-7.6203003-24.3841553-13.4111023-29.2602539-47.2450256-29.2602539-72.2377319 0-25.9074707 3.6571045-61.264679 29.2602539-75.2862549 12.1921387-7.0098114 28.0412598-7.6183624 42.0627441-7.6183624 14.0206299 0 29.869751.608551 42.0618896 7.6183624 25.6031494 14.0215759 29.2602539 49.3787842 29.2602539 75.2862549 0 24.9927063-4.8760986 58.8266296-29.2602539 72.2377319zm-15.8491211-125.8821106c-7.31604-4.8779907-17.6785889-5.1822815-26.2127686-5.1822815-8.5350342 0-18.897583.3042908-26.213623 5.1822815-14.3248291 8.8392944-14.630127 39.0142517-14.630127 53.6443787 0 27.4307556 3.6580811 43.5860596 14.630127 50.5958862 7.31604 4.8779907 17.6785889 5.182251 26.213623 5.182251 8.5341797 0 18.8967285-.3042603 26.2127686-5.182251 10.9720459-7.0098267 14.630127-21.9442139 14.630127-50.5958862 0-14.630127-.3052979-44.8050843-14.630127-53.6443787z"/><path d="m1502.9979248 411.2515869h-35.052002l-33.5286865-177.0884857-33.527832 177.0884857h-35.052002l-48.767334-213.3585358h30.4802246l35.661499 182.5750275 35.9658203-182.5750275h30.4801025l35.661499 182.5750275 35.9658203-182.5750275h30.4802246z"/><path d="m1666.3642578 407.2902527c-12.4963379 7.0098267-28.0411377 7.6203003-42.0627441 7.6203003-14.0206299 0-29.5654297-.6104736-42.0617676-7.6203003-24.3841553-13.4111023-29.2602539-47.2450256-29.2602539-72.2377319 0-25.9074707 3.6569824-61.264679 29.2602539-75.2862549 12.1920166-7.0098114 28.0411377-7.6183624 42.0617676-7.6183624 14.0216064 0 29.8707275.608551 42.0627441 7.6183624 25.6032715 14.0215759 29.2602539 49.3787842 29.2602539 75.2862549 0 24.9927063-4.8760986 58.8266296-29.2602539 72.2377319zm-15.8491211-125.8821106c-7.31604-4.8779907-17.6785889-5.1822815-26.213623-5.1822815-8.5340576 0-18.8967285.3042908-26.2126465 5.1822815-14.3249512 8.8392944-14.630127 39.0142517-14.630127 53.6443787 0 27.4307556 3.657959 43.5860596 14.630127 50.5958862 7.315918 4.8779907 17.6785889 5.182251 26.2126465 5.182251 8.5350342 0 18.897583-.3042603 26.213623-5.182251 10.972168-7.0098267 14.630127-21.9442139 14.630127-50.5958862 0-14.630127-.3051758-44.8050843-14.630127-53.6443787z"/><path d="m1751.3959961 319.2033997v92.0481873h-28.9559326v-155.44664h26.8231201v27.7369232c6.7055664-17.3743286 24.3831787-31.3939667 50.901123-31.3939667v27.4307404c-30.7845459-.0000001-48.7683105 19.5080871-48.7683105 39.6247558z"/><path d="m1991.5690918 411.2515869v-15.5448608c-8.5350342 10.0583191-23.1651611 19.2038269-39.6237793 19.2038269-13.7164307 0-29.8707275-.9147339-42.0628662-7.6203003-21.3355713-11.5835266-29.2601318-38.7099915-29.2601318-71.6291809 0-25.6031799 4.5717773-61.87323 30.1749268-75.8948059 12.1920166-6.7055359 22.2503662-7.6183624 35.9658203-7.6183624 19.5070801 0 32.3087158 6.0950775 41.4532471 17.0681305v-71.3229828h29.2602539v213.3585358h-25.9074708zm-39.6237793-135.9404602c-8.2298584 0-19.2028809.3061829-26.2137451 5.182251-11.581543 7.6203003-14.6300049 28.9559631-14.6300049 54.5591431 0 23.7736816 1.5241699 42.9755859 14.6300049 51.5106201 7.0108643 4.8760681 17.9838867 4.8760681 26.2137451 4.8760681 29.2601318 0 37.7943115-24.688446 37.7943115-56.3866882 0-37.7952576-7.0098877-59.7413941-37.7943115-59.7413941z"/><path d="m1045.452637 197.893051h28.955952v213.358536h-28.955952z"/><path d="m1108.598267 197.893051h28.955952v213.358536h-28.955952z"/><path d="m1825.152222 197.893051h28.955952v213.358536h-28.955952z"/></g><path d="m374.5240479 250.0004883v-124.9994888h-249.9989625v124.9994888 124.9992065h249.9989625v124.9994812h249.9989624v-124.9994812-124.9992065z"/></svg>