<svg enable-background="new 0 0 2142 625" viewBox="0 0 2142 625" xmlns="http://www.w3.org/2000/svg"><path d="m822.3521118 411.2515869v-98.4494629h-81.9907837v98.4494629h-28.9559937v-213.3585358h28.9559937v92.0482025h81.9907837v-92.0482025h28.9559937v213.3585358z"/><path d="m990.2893677 407.2902527c-12.1920776 6.7055664-26.8222046 7.6203003-40.5375366 7.6203003-13.7163696 0-28.3464355-.9147339-40.5385132-7.6203003-21.3356934-11.5835266-29.2612305-39.3204651-29.2612305-72.2377319 0-25.6031799 3.9622803-60.9604187 29.5654907-74.9800415 12.1920776-6.7055664 26.5178833-7.9245758 40.2342529-7.9245758 13.715332 0 27.7359619 1.2190094 39.9280396 7.9245758 18.5933838 10.0583191 28.3464355 35.661499 28.3464355 67.664032v11.5835266h-107.5939941c0 22.8589478 2.4380493 37.4890747 15.239624 45.7198181 7.0108032 4.8760681 15.8500977 5.790802 24.079895 5.790802 8.2288208 0 17.6776123-.3042603 24.6884155-5.182251 7.9245605-5.1803284 12.4963379-11.581604 13.7153931-22.2503967h29.8706665c-2.4380493 20.1166381-12.8015747 35.661499-27.7369384 43.8922424zm-15.8491211-125.8821106c-7.0108032-4.8779907-16.4595947-5.1822815-24.6884155-5.1822815-8.2297974 0-17.6786499.3042908-24.6893921 5.1822815-8.5341187 5.4865112-12.1920776 17.372406-13.7153931 36.27005h76.1990967c-.3043213-18.5914611-5.7908325-31.3940124-13.105896-36.27005z"/><path d="m1283.5478516 407.2902527c-12.4963379 7.0098267-28.0411377 7.6203003-42.0617676 7.6203003-14.0216064 0-29.5664062-.6104736-42.0628662-7.6203003-24.3841553-13.4111023-29.2601318-47.2450256-29.2601318-72.2377319 0-25.9074707 3.6569824-61.264679 29.2601318-75.2862549 12.1921387-7.0098114 28.0412598-7.6183624 42.0628662-7.6183624 14.0206299 0 29.869751.608551 42.0617676 7.6183624 25.6031494 14.0215759 29.2602539 49.3787842 29.2602539 75.2862549 0 24.9927063-4.8760987 58.8266296-29.2602539 72.2377319zm-15.8491211-125.8821106c-7.31604-4.8779907-17.6785889-5.1822815-26.2126465-5.1822815-8.5350342 0-18.8977051.3042908-26.213623 5.1822815-14.3249512 8.8392944-14.630127 39.0142517-14.630127 53.6443787 0 27.4307556 3.657959 43.5860596 14.630127 50.5958862 7.315918 4.8779907 17.6785889 5.182251 26.213623 5.182251 8.5340576 0 18.8966064-.3042603 26.2126465-5.182251 10.972168-7.0098267 14.630127-21.9442139 14.630127-50.5958862-.0000001-14.630127-.3052979-44.8050843-14.630127-53.6443787z"/><path d="m1502.9976807 411.2515869h-35.052002l-33.5286865-177.0884857-33.52771 177.0884857h-35.052002l-48.7674561-213.3585358h30.4802246l35.661499 182.5750275 35.9658203-182.5750275h30.4802246l35.661499 182.5750275 35.9656982-182.5750275h30.4802246z"/><path d="m1666.3641357 407.2902527c-12.49646 7.0098267-28.0412598 7.6203003-42.0628662 7.6203003-14.0205078 0-29.5654297-.6104736-42.0617676-7.6203003-24.3841553-13.4111023-29.2602539-47.2450256-29.2602539-72.2377319 0-25.9074707 3.6571045-61.264679 29.2602539-75.2862549 12.1920166-7.0098114 28.0412598-7.6183624 42.0617676-7.6183624 14.0216064 0 29.8707275.608551 42.0628662 7.6183624 25.6031494 14.0215759 29.2601318 49.3787842 29.2601318 75.2862549.0000001 24.9927063-4.8759765 58.8266296-29.2601318 72.2377319zm-15.8492431-125.8821106c-7.315918-4.8779907-17.6785889-5.1822815-26.213623-5.1822815-8.5340576 0-18.8966064.3042908-26.2126465 5.1822815-14.3248291 8.8392944-14.630127 39.0142517-14.630127 53.6443787 0 27.4307556 3.657959 43.5860596 14.630127 50.5958862 7.31604 4.8779907 17.6785889 5.182251 26.2126465 5.182251 8.5350342 0 18.8977051-.3042603 26.213623-5.182251 10.972168-7.0098267 14.630127-21.9442139 14.630127-50.5958862-.0000001-14.630127-.3051758-44.8050843-14.630127-53.6443787z"/><path d="m1751.395752 319.2033997v92.0481873h-28.9559326v-155.44664h26.8231201v27.7369232c6.7055664-17.3743286 24.3831787-31.3939667 50.901123-31.3939667v27.4307404c-30.7844238-.0000001-48.7683105 19.5080871-48.7683105 39.6247558z"/><path d="m1991.5688477 411.2515869v-15.5448608c-8.5350342 10.0583191-23.1651611 19.2038269-39.6237793 19.2038269-13.7163086 0-29.8707275-.9147339-42.0627441-7.6203003-21.3356934-11.5835266-29.2602539-38.7099915-29.2602539-71.6291809 0-25.6031799 4.5717773-61.87323 30.1749268-75.8948059 12.1921387-6.7055359 22.2503662-7.6183624 35.9658203-7.6183624 19.5070801 0 32.3087158 6.0950775 41.4532471 17.0681305v-71.3229828h29.2602539v213.3585358h-25.9074708zm-39.6237793-135.9404602c-8.2298584 0-19.2028809.3061829-26.213623 5.182251-11.581665 7.6203003-14.630127 28.9559631-14.630127 54.5591431 0 23.7736816 1.5241699 42.9755859 14.630127 51.5106201 7.0107422 4.8760681 17.9837646 4.8760681 26.213623 4.8760681 29.2602539 0 37.7943115-24.688446 37.7943115-56.3866882 0-37.7952576-7.0098877-59.7413941-37.7943115-59.7413941z"/><path d="m1045.452393 197.893051h28.955952v213.358536h-28.955952z"/><path d="m1108.598023 197.893051h28.955952v213.358536h-28.955952z"/><path d="m1825.151978 197.893051h28.955952v213.358536h-28.955952z"/><path d="m374.523773 250.000275h249.999039v249.998901h-249.999039z" fill="#0016ff"/><path d="m124.524742 125.000816h249.999039v249.998901h-249.999039z" fill="#e70000"/><path d="m124.524742 250.000275h499.998077v124.999451h-499.998077z" fill="#711ed6"/><g fill="#fff"><path d="m187.513382 231.6351471c-5.3657379 0-12.0716705-.3673096-16.826889-3.047699-11.3370514-6.3435974-11.704361-26.5805359-11.704361-38.8954315v-4.3879089c0-12.3148956.3673096-32.5518494 11.704361-38.8904724 4.7552185-2.6853485 11.4611511-3.047699 16.826889-3.047699 17.9238739 0 24.7489471 5.2416534 27.4293365 23.160553h-11.8235016c-1.7075043-10.9697418-4.5119934-13.4118805-15.605835-13.4118805-3.4150085 0-7.3164673.1240997-10.3641663 1.9556885-5.8521881 3.5341492-5.9713135 19.9937286-5.9713135 26.2082672v12.4389954c0 6.0953979.1191254 22.5549774 5.9713135 26.2132263 3.047699 1.9507294 6.9491577 1.9507294 10.3641663 1.9507294 11.2179413 0 14.0224152-2.561264 15.605835-13.6551056h11.9475861c-2.6803894 18.0429992-9.5104218 23.4087371-27.553421 23.4087371z"/><path d="m339.45578 191.5236053c0 11.9476013-.4864197 30.9684296-11.7043762 37.0638428-4.8743286 2.6803894-10.3641663 3.047699-15.7249451 3.047699-5.4898376 0-10.8506165-.3673096-15.7299194-3.047699-11.3370667-6.2194977-11.7043762-25.8508759-11.7043762-37.7984619v-45.9637299h11.7043762v45.8446045c0 8.8998871.2432251 25.2353668 6.338623 29.3800507 2.9285889 1.9507294 6.0954285 2.0748138 9.2672119 2.0748138 3.2909241 0 6.5818481-.1240845 9.5104065-2.0748138 6.0954285-4.1446838 6.338623-20.4801636 6.338623-29.3800507v-45.8446045h11.7043763z"/><path d="m199.8233337 356.634613v-42.1863708c0-9.8727722-5.2416534-12.0667114-12.9254456-12.0667114-11.4561768 0-16.2113953 8.5325623-16.2113953 14.9952698v39.2578125h-11.704361v-85.3456116h11.5802765v30.1146851c2.5612488-4.1446838 8.5325623-8.2893677 18.2911682-8.2893677 14.8712006 0 22.5549927 6.7059326 22.5549927 19.8746033v43.6456909h-11.5852355z"/><path d="m329.0916138 356.634613v-7.5596924c-1.0969849 2.3180237-5.2416382 6.4627075-8.5375366 7.5596924-3.7773743 1.3401794-8.0461426 1.4642639-12.558136 1.4642639h-2.0698547c-12.434021 0-19.9937134-5.7330322-19.9937134-19.6313782 0-8.8998718 4.8743286-18.2861938 19.5072937-18.2861938h22.4308777c0-7.1923828-.3673096-12.6822205-4.5119934-15.4866943-2.9236145-1.9507446-7.0682678-2.0698853-10.3591919-2.0698853-3.2958984 0-6.462738.1191406-9.2672119 2.0698853-2.6853638 1.707489-3.7823181 3.7823181-4.2687683 7.6837769h-11.9476013c1.0969849-8.0461426 3.9014587-13.0445557 9.8777466-16.3404541 4.8743286-2.6803894 10.1159973-3.047699 15.605835-3.047699 5.4848633 0 11.9475708.3673096 16.9460144 3.047699 8.4084778 4.6360779 9.5104065 15.7299194 9.5104065 28.8985596v31.6981201h-10.3641664zm-1.2210694-27.9207458h-17.4324646c-8.6566772 0-12.0716858 2.4371643-12.0716858 10.3641663 0 7.3164978 3.2909241 9.7536621 12.3149109 9.7536621h1.4642944c2.5562744 0 5.8521729-.124115 8.5325623-1.0969849 3.171814-1.2210693 7.1923828-3.7773743 7.1923828-7.927002z"/><path d="m454.1507568 355.051178c-4.8743286 2.6803894-11.3370667 3.047699-16.8219299 3.047699-5.4898376 0-11.9476013-.3673096-16.8269043-3.047699-8.5325623-4.6360779-11.7043457-15.7299194-11.7043457-28.8985596 0-10.2400818 1.4642639-24.5057373 11.7043457-30.1146851 4.879303-2.6803894 11.3370667-3.047699 16.8269043-3.047699 5.4848633 0 11.9476013.3673096 16.8219299 3.047699 7.0732422 3.7823181 9.8777466 11.7043762 11.0988159 19.6313782h-12.1958007c-.7296448-5.1225281-2.3130493-9.0239868-5.2416382-10.9747009-2.8044739-1.9507446-7.1923828-2.0698853-10.4833069-2.0698853s-7.6837769.1191406-10.4882507 2.0698853c-4.631134 3.047699-5.8522034 11.217926-5.8522034 21.4580078 0 9.5104065.6105347 16.8268738 5.8522034 20.2419128 2.8044739 1.9507141 7.1973267 2.0698547 10.4882507 2.0698547s7.678833-.1191406 10.4833069-2.0698547c3.4150085-2.1939697 4.879303-6.2195129 5.4848633-11.342041h11.9525757c-1.2210694 9.1480713-4.6361084 16.4595948-11.098816 19.9986878z"/><path d="m575.6185913 356.634613-29.9955444-30.7252197v30.7252197h-11.5802612v-85.3456116h11.5802612v48.7681885l25.4835815-25.6026611h14.0223999l-28.4121094 27.6774902 33.286438 34.502594z"/><path d="m431.7198792 481.6340637v-53.0369873h-22.9223022v-9.1431274h34.5075378v62.1801147zm-2.5612793-72.544281v-12.8013306h15.3626099v12.8013306z"/><path d="m554.4038086 483.0983276c-11.8284302 0-20.3610229-5.6089478-20.3610229-18.0429993v-36.3341675h-18.6535034v-9.2672119h18.6535034v-19.5072632l11.5802612-3.6582336v23.1654968h23.2896118v9.2672119h-23.2896118v34.0161438c0 7.1923828 5.4848633 10.4833069 10.7315063 10.4833069 4.3878784 0 12.0667114-.8537598 13.774231-1.5834351v9.7536621c-2.5612793.7296449-9.1431275 1.7074891-15.7249756 1.7074891z"/></g></svg>